<?xml version="1.0" encoding="utf-8"?>
<!-- Generator: Adobe Illustrator 24.0.1, SVG Export Plug-In . SVG Version: 6.00 Build 0)  -->
<svg version="1.1" id="Layer_1" xmlns="http://www.w3.org/2000/svg" xmlns:xlink="http://www.w3.org/1999/xlink" x="0px" y="0px"
	 viewBox="0 0 2335.1 551" style="enable-background:new 0 0 2335.1 551;" xml:space="preserve">
<style type="text/css">
	.st0{fill:#FFFFFF;}
</style>
<path class="st0" d="M328.2,301c0,66.9-3.8,97.2-24,118c-16.4,17-33.5,22.7-70.7,22.7H104.8c-37.2,0-54.3-5.7-70.7-22.7
	C10.7,395.1,0,359.1,0,265.1c0-94,10.7-130,34.1-154c15.8-17,33.5-22.7,70.7-22.7h128.7c37.2,0,54.3,5.7,70.7,22.7
	c19.6,20.2,24.6,49.2,24,113H212c-1.3-26.5-1.9-32.8-4.4-36c-3.8-4.4-8.8-5.7-22.1-5.7h-30.9c-13.3,0-18.3,0.6-22.1,5.7
	c-3.8,4.4-6.3,15.2-6.3,77s2.5,72.6,6.3,77c3.8,5,8.8,5.7,22.1,5.7h30.9c13.3,0,18.3-1.3,22.1-5.7c3.2-3.2,3.8-10.7,4.4-41H328.2z
	 M397.5,88.4h125v357.2c0,48.6-7.6,67.5-22.7,82.7C486.5,541.5,466.9,551,424,551c-29,0-50.5-3.8-78.9-9.5v-90.3h22.1
	c15.8,0,22.1-1.3,25.3-4.4c3.8-3.8,5-10.1,5-24V88.4z M837.7,414c-7.6,24-18.3,29-42.3,29h-84.6c-24,0-34.7-5.1-42.3-29L561.3,88.4
	h133.8l57.4,227.2h7l56.8-227.2H945L837.7,414z M1194.1,182.4v-94h-84.6V0l-90.6,0l-37.5,113.8v68.6v169.2
	c0,44.2,6.3,60.6,17.7,71.9c12,12,30.9,22.1,73.2,22.1c35.3,0,70.1-4.4,90.9-9.5l30.3-6.9v-82.1h-53.6c-15.8,0-22.1-1.3-25.2-4.4
	c-3.8-3.8-5.1-10.1-5.1-24V182.4H1194.1z M1306.2,202.4c0-71.4,32.1-118.1,100.2-118.1c51.1,0,88.5,26.4,92.9,73.4h-32.1
	c-2.4-25.2-21.9-45.9-60.1-45.9c-56.8,0-69,45-69,90.1c0,45.9,13.8,89.7,71.4,89.7c46.7,0,60.9-30.4,62.1-63.7h-62.9v-26h92.9v112.8
	h-24.8v-31.7c-17,29.2-47.1,35.7-68.6,35.7C1338.7,318.8,1306.2,271.8,1306.2,202.4z M1556.6,201.6c0-70.2,33.7-117.3,102.3-117.3
	s102.3,47.1,102.3,117.3c0,70.2-33.7,117.3-102.3,117.3S1556.6,271.8,1556.6,201.6z M1728.7,201.6c0-44.2-14.2-89.7-69.8-89.7
	c-56,0-69.8,45.4-69.8,89.7c0,44.2,13.8,89.7,69.8,89.7C1714.4,291.2,1728.7,245.8,1728.7,201.6z M1838.2,248.2
	c2.4,34.5,31.2,44.2,58.4,44.2c33.3,0,49.5-15,49.5-36.1c0-17.4-11.4-29.6-32.5-35.7l-49.5-14.2c-34.1-9.7-52.8-29.2-52.8-60.1
	c0-43.4,36.5-62.1,78.3-62.1c47.1,0,78.3,24.3,81.2,69.4h-31.2c-2.8-34.9-29.2-43-52.3-43c-29.2,0-44.2,13-44.2,33.7
	c0,17.9,11,29.6,32.5,35.7l49.5,14.2c31.2,8.9,52.8,26,52.8,60.1c0,47.1-40.2,64.5-82.8,64.5c-49.5,0-85.6-23.1-88.9-70.6H1838.2z
	 M2166.3,233.6c0,16.4-9.3,27-25.2,37.9l-13.8,9.5c-5.9,4.1-9.7,7.9-10.8,13h50.9v20.7h-79.9v-8.3c0-19.5,10.1-31.9,24.3-41.4
	l13.6-9.1c9.1-6.1,16.2-11.6,16.2-22.1c0-9.9-6.5-15.2-16.2-15.2c-11.2,0-17.2,6.9-17.4,19.1h-23.3c0-25,17.4-38.1,42-38.1
	C2151,199.5,2166.3,212.7,2166.3,233.6z M2191.2,288h26.8v26.8h-26.8V288z M2335.1,258.2c0,35.5-14,58.6-46.9,58.6
	s-46.9-23.1-46.9-58.6c0-35.5,14-58.6,46.9-58.6S2335.1,222.7,2335.1,258.2z M2267.1,258.2c0,22.3,4.3,38.1,21.1,38.1
	s21.1-15.8,21.1-38.1c0-22.3-4.3-38.1-21.1-38.1S2267.1,235.9,2267.1,258.2z"/>
</svg>
