<?xml version="1.0" encoding="UTF-8"?>
<svg width="16px" height="16px" viewBox="0 0 16 16" version="1.1" xmlns="http://www.w3.org/2000/svg" xmlns:xlink="http://www.w3.org/1999/xlink">
    <title>Combined Shape 4</title>
    <g id="GOS" stroke="none" stroke-width="1" fill="none" fill-rule="evenodd">
        <g id="Artboard" transform="translate(-30.000000, -124.000000)" fill="#161616" fill-rule="nonzero">
            <path d="M38,124 C42.418278,124 46,127.581722 46,132 C46,136.418278 42.418278,140 38,140 C33.581722,140 30,136.418278 30,132 C30,127.581722 33.581722,124 38,124 Z M38,125 C34.1340068,125 31,128.134007 31,132 C31,135.865993 34.1340068,139 38,139 C41.8659932,139 45,135.865993 45,132 C45,128.134007 41.8659932,125 38,125 Z M40.6,127.7 L40.6,128.95 L36.85,128.95 L36.85,131.45 L39.35,131.45 C40.0403559,131.45 40.6,132.009644 40.6,132.7 L40.6,135.2 C40.6,135.890356 40.0403559,136.45 39.35,136.45 L35.6,136.45 L35.6,135.2 L39.35,135.2 L39.35,132.7 L36.85,132.7 C36.1596441,132.7 35.6,132.140356 35.6,131.45 L35.6,128.95 C35.6,128.259644 36.1596441,127.7 36.85,127.7 L40.6,127.7 Z" id="Combined-Shape"></path>
        </g>
    </g>
</svg>