<?xml version="1.0" encoding="UTF-8"?><svg version="1.1" width="16px" height="16px" viewBox="0 0 16.0 16.0" xmlns="http://www.w3.org/2000/svg" xmlns:xlink="http://www.w3.org/1999/xlink"><defs><clipPath id="i0"><path d="M8,0 C12.418278,0 16,3.581722 16,8 C16,12.418278 12.418278,16 8,16 C3.581722,16 0,12.418278 0,8 C0,3.581722 3.581722,0 8,0 Z M10.6,3.7 L6.85,3.7 C6.15964406,3.7 5.6,4.25964406 5.6,4.95 L5.6,7.45 C5.6,8.14035594 6.15964406,8.7 6.85,8.7 L9.35,8.7 L9.35,11.2 L5.6,11.2 L5.6,12.45 L9.35,12.45 C10.0403559,12.45 10.6,11.8903559 10.6,11.2 L10.6,8.7 C10.6,8.00964406 10.0403559,7.45 9.35,7.45 L6.85,7.45 L6.85,4.95 L10.6,4.95 L10.6,3.7 Z"></path></clipPath></defs><g clip-path="url(#i0)"><polygon points="0,0 16,0 16,16 0,16 0,0" stroke="none" fill="#FFFFFF"></polygon></g></svg>