<?xml version="1.0" encoding="UTF-8"?><svg version="1.1" width="16px" height="16px" viewBox="0 0 16.0 16.0" xmlns="http://www.w3.org/2000/svg" xmlns:xlink="http://www.w3.org/1999/xlink"><defs><clipPath id="i0"><path d="M8,0 C12.418278,0 16,3.581722 16,8 C16,12.418278 12.418278,16 8,16 C3.581722,16 0,12.418278 0,8 C0,3.581722 3.581722,0 8,0 Z M10.6,3.7 L5.6,3.7 L5.6,4.95 L7.475,4.95 L7.475,11.2 L5.6,11.2 L5.6,12.45 L10.6,12.45 L10.6,11.2 L8.725,11.2 L8.725,4.95 L10.6,4.95 L10.6,3.7 Z"></path></clipPath></defs><g clip-path="url(#i0)"><polygon points="0,0 16,0 16,16 0,16 0,0" stroke="none" fill="#FFFFFF"></polygon></g></svg>