<?xml version="1.0" encoding="UTF-8"?>
<svg width="20px" height="20px" viewBox="0 0 20 20" version="1.1" xmlns="http://www.w3.org/2000/svg" xmlns:xlink="http://www.w3.org/1999/xlink">
    <title>Actions / Navigation / app-switcher / 21</title>
    <g id="Sl-Hu-(Production)" stroke="none" stroke-width="1" fill="none" fill-rule="evenodd">
        <g id="Sl-Hu-/-Geslo-/-Minimalni-obseg" transform="translate(-953.000000, -90.000000)" fill="#FFFFFF">
            <g id="Actions-/-Navigation-/-app-switcher-/-20" transform="translate(953.000000, 90.000000)">
                <path d="M15.5,15.5 L18,15.5 L18,18 L15.5,18 L15.5,15.5 Z M8.75,15.5 L11.25,15.5 L11.25,18 L8.75,18 L8.75,15.5 Z M2,15.5 L4.5,15.5 L4.5,18 L2,18 L2,15.5 Z M15.5,8.75 L18,8.75 L18,11.25 L15.5,11.25 L15.5,8.75 Z M8.75,8.75 L11.25,8.75 L11.25,11.25 L8.75,11.25 L8.75,8.75 Z M2,8.75 L4.5,8.75 L4.5,11.25 L2,11.25 L2,8.75 Z M15.5,2 L18,2 L18,4.5 L15.5,4.5 L15.5,2 Z M8.75,2 L11.25,2 L11.25,4.5 L8.75,4.5 L8.75,2 Z M2,2 L4.5,2 L4.5,4.5 L2,4.5 L2,2 Z" id="Fill"></path>
            </g>
        </g>
    </g>
</svg>